<svg width="48" height="48" viewBox="0 0 48 48" fill="none" xmlns="http://www.w3.org/2000/svg">
<g clip-path="url(#clip0_52_214)">
<rect width="48" height="48" rx="4" fill="#333940"/>
<path fill-rule="evenodd" clip-rule="evenodd" d="M24 39C32.2843 39 39 32.2843 39 24C39 15.7157 32.2843 9 24 9C15.7157 9 9 15.7157 9 24C9 32.2843 15.7157 39 24 39ZM24 40C32.8366 40 40 32.8366 40 24C40 15.1634 32.8366 8 24 8C15.1634 8 8 15.1634 8 24C8 32.8366 15.1634 40 24 40Z" fill="#4C5865"/>
<path d="M31.9165 21.2462C31.958 21.1288 31.9932 21.0093 32.022 20.8882C32.088 20.5361 32.1444 20.4884 32.4942 20.4955C32.5526 20.4965 32.6091 20.4742 32.6512 20.4336C32.6695 20.4116 32.6419 20.315 32.6079 20.2915C32.5121 20.2251 32.4069 20.149 32.2965 20.1308C31.99 20.0804 31.9698 20.0442 32.0847 19.7668C32.1321 19.6527 32.122 19.5128 32.1294 19.3845C32.1481 19.0794 32.3159 18.8378 32.4875 18.6095C32.5993 18.4604 32.8291 18.5529 32.8928 18.7498C32.9212 18.8378 32.9514 18.9251 32.9809 19.0127L33.0312 18.9996C32.9812 18.7915 32.9313 18.5834 32.8772 18.3589C32.948 18.3518 32.9868 18.3366 33.0167 18.347C33.1561 18.3955 33.2524 18.347 33.3374 18.2351C33.3978 18.1546 33.4582 18.1053 33.5507 18.2314C33.9145 18.7175 34.1465 19.2895 34.2242 19.8917C34.261 20.1488 34.3141 20.4033 34.3831 20.6536C34.489 21.0594 34.4868 21.4681 34.4625 21.8977C34.3268 21.2961 34.1137 20.7146 33.8285 20.1677L33.7838 20.1841C33.8364 20.3191 33.8863 20.4548 33.9412 20.5887C34.1694 21.1425 34.1399 21.6855 33.8763 22.2203C33.8494 22.2751 33.8412 22.3389 33.817 22.3952C33.7655 22.5123 33.7696 22.6503 33.8893 22.6753C33.9665 22.6913 34.0907 22.5895 34.159 22.5105C34.2272 22.4314 34.2414 22.3184 34.288 22.224C34.3194 22.1684 34.3552 22.1154 34.395 22.0655L34.4625 22.0849C34.4454 22.2244 34.4372 22.3658 34.4085 22.503C34.3712 22.6787 34.3234 22.8524 34.2705 23.0251C34.2175 23.1978 34.1213 23.2291 33.9997 23.1135C33.8781 22.9979 33.732 22.9039 33.7014 22.7033C33.6857 22.6022 33.5679 22.5168 33.4963 22.4243C33.4299 22.5213 33.3586 22.6156 33.2997 22.7167C33.2802 22.7563 33.2773 22.8021 33.2915 22.8439C33.3959 23.1146 33.422 23.4171 33.6678 23.6293C33.845 23.7825 33.7719 23.9772 33.544 24.0492C33.5172 24.0598 33.493 24.0762 33.4732 24.0971C33.4533 24.1181 33.4383 24.1431 33.4291 24.1704C33.3456 24.5519 33.0282 24.6287 32.7247 24.7078C32.5322 24.7523 32.3358 24.778 32.1384 24.7846C32.088 24.7876 31.9956 24.7279 31.9866 24.6839C31.9471 24.5025 31.924 24.3179 31.9176 24.1324C31.9079 23.7441 31.9146 23.3559 31.9146 22.9662C32.1757 22.9438 32.2387 22.8681 32.1757 22.5933C32.1272 22.3848 32.0597 22.1808 31.9859 21.9249L31.7334 22.4638C31.6465 22.3579 31.5626 22.2893 31.5227 22.2028C31.4108 21.9608 31.2989 21.7157 31.2307 21.4606C31.1908 21.3115 31.224 21.1418 31.2437 20.9833C31.2482 20.946 31.3265 20.8945 31.3761 20.8878C31.5503 20.8632 31.7353 20.9911 31.8042 21.1649C31.8176 21.1912 31.8335 21.2162 31.8516 21.2395L31.9165 21.2462ZM33.5373 19.8563L33.5962 19.8138C33.4923 19.6693 33.3884 19.5251 33.2844 19.3812L33.2255 19.4237C33.3289 19.5676 33.4329 19.7118 33.5373 19.8563Z" fill="#4C5865"/>
<path d="M30.7891 19.7057C30.8193 19.4447 30.8282 19.2429 30.8696 19.0501C30.8953 18.9425 30.9489 18.8435 31.0251 18.7633C31.2489 18.528 31.4354 18.2785 31.5472 17.963C31.6524 17.6602 31.8866 17.4532 32.2346 17.4606C32.3315 17.4606 32.4583 17.5173 32.5124 17.5912C32.5471 17.6374 32.499 17.7814 32.4471 17.8522C32.2763 18.0805 32.2014 18.3438 32.0981 18.6026C31.8892 19.1247 31.9235 19.6841 31.7785 20.214C31.7464 20.3311 31.652 20.5146 31.5748 20.5206C31.3462 20.5385 31.0654 20.5668 30.9487 20.2901C30.8622 20.0872 30.8301 19.8635 30.7891 19.7057Z" fill="#4C5865"/>
<path d="M30.5807 30.1401C30.5591 30.2729 30.5624 30.3669 30.5274 30.443C30.4317 30.664 30.3214 30.8784 30.1973 31.0848C30.1175 31.2116 29.9825 31.3022 29.8859 31.4204C29.744 31.5899 29.6118 31.7672 29.4899 31.9515C29.3538 32.1637 29.2534 32.399 29.1099 32.6064C29.0092 32.7507 28.8686 32.8704 28.7332 32.9864C28.5337 33.1614 28.3253 33.3259 28.1089 33.4794C28.0026 33.554 27.8583 33.5704 27.7434 33.6345C27.6483 33.6879 27.5267 33.7565 27.4943 33.8464C27.3985 34.1123 27.1359 34.0828 26.9524 34.1887C26.9494 34.1906 26.8625 34.0895 26.8741 34.0679C26.9666 33.8829 27.0719 33.7046 27.1892 33.5342C27.6547 32.8917 28.289 32.4177 28.8544 31.8739C29.1788 31.5621 29.4753 31.2209 29.7867 30.895C30.0079 30.663 30.232 30.434 30.4562 30.205C30.4714 30.1894 30.4957 30.183 30.5807 30.1401Z" fill="#4C5865"/>
<path d="M15.4316 19.5422C15.5017 19.5478 15.5412 19.5389 15.5625 19.5549C15.7463 19.6929 15.9336 19.8279 16.1059 19.9797C16.1741 20.0401 16.1431 20.1091 16.048 20.1483C15.7572 20.2691 15.4704 20.4004 15.1795 20.5212C14.993 20.5991 14.7301 20.4347 14.6551 20.2001C14.5873 19.9883 14.6924 19.8245 14.9199 19.757C15.0378 19.722 15.1474 19.6593 15.2612 19.6109C15.3283 19.5821 15.3962 19.5564 15.4316 19.5422Z" fill="#4C5865"/>
<path d="M29.5429 33.6868C29.3423 33.9657 29.1415 34.2447 28.9407 34.5236C28.7878 34.7355 28.6468 34.9574 28.4767 35.1543C28.3284 35.3197 28.1644 35.4703 27.9871 35.604C27.9069 35.6663 27.8159 35.6413 27.8248 35.5037C27.8304 35.4176 27.8297 35.3311 27.8386 35.2453C27.858 35.0588 27.8595 34.8925 28.0874 34.7791C28.3082 34.6698 28.4696 34.4435 28.6651 34.2797C28.9045 34.0784 29.1499 33.8856 29.3975 33.6916C29.4325 33.6713 29.4702 33.6558 29.5094 33.6458L29.5429 33.6868Z" fill="#4C5865"/>
<path d="M29.6164 32.7515C29.5045 32.9111 29.4232 33.0427 29.3285 33.1658C29.2002 33.3321 29.0675 33.4947 28.9265 33.6506C28.8996 33.6808 28.8366 33.679 28.7904 33.692C28.771 33.6197 28.7132 33.5272 28.7389 33.4787C28.8157 33.3332 28.9064 33.1844 29.0268 33.0759C29.1655 32.951 29.3412 32.8671 29.5023 32.7675C29.5198 32.7578 29.5467 32.7615 29.6164 32.7515Z" fill="#4C5865"/>
<path d="M15.5059 21.6271L15.5763 21.4075C15.6537 21.4311 15.7293 21.4604 15.8023 21.4951C15.8873 21.5443 15.9676 21.6013 16.0421 21.6652C16.0757 21.6935 16.1167 21.7465 16.1104 21.7808C16.104 21.8151 16.0481 21.8483 16.0067 21.8651C15.9495 21.8868 15.8897 21.9007 15.8288 21.9065C15.5681 21.9341 15.5211 21.8908 15.5059 21.6271Z" fill="#4C5865"/>
<path d="M17.0918 21.403C17.1485 21.2072 17.2037 21.0185 17.2578 20.8313C17.461 20.8619 17.6385 21.0178 17.6285 21.1446C17.6139 21.3381 17.4569 21.4183 17.0918 21.403Z" fill="#4C5865"/>
<path d="M16.7559 21.5276C16.8793 21.5481 16.9677 21.5492 17.0438 21.5798C17.0693 21.5922 17.0919 21.61 17.1098 21.632C17.1277 21.6541 17.1406 21.6798 17.1474 21.7073C17.1527 21.7409 17.0919 21.8159 17.0564 21.8192C16.9696 21.8267 16.8554 21.8312 16.7999 21.7819C16.7525 21.7372 16.7697 21.6204 16.7559 21.5276Z" fill="#4C5865"/>
<path d="M16.3799 21.0596C16.412 20.9313 16.4231 20.8008 16.5843 20.7874C16.5954 20.7874 16.6346 20.8698 16.6215 20.8992C16.5846 20.9951 16.5865 21.1622 16.3799 21.0596Z" fill="#4C5865"/>
<path d="M17.7127 26.3667L17.9592 26.4939C17.938 26.5245 17.9219 26.577 17.8943 26.5815C17.7705 26.6031 17.6985 26.5457 17.7127 26.3667Z" fill="#4C5865"/>
<path d="M23.1221 18.8798C23.0606 18.7992 23.0072 18.7459 23.0143 18.7358C23.079 18.6477 23.1502 18.5646 23.2273 18.4871C23.2617 18.5072 23.293 18.5324 23.3201 18.5616C23.2679 18.656 23.2082 18.7474 23.1221 18.8798Z" fill="#4C5865"/>
<path fill-rule="evenodd" clip-rule="evenodd" d="M14.3018 17.5457C14.2741 17.5987 14.2499 17.6535 14.2293 17.7099C14.1952 17.8167 14.186 17.9313 14.1767 18.0461C14.1719 18.1056 14.1671 18.1652 14.1589 18.2238C14.1376 18.3774 14.2487 18.5904 14.4136 18.6124C14.4885 18.6224 14.6026 18.5188 14.6605 18.4389C14.8171 18.2234 15.064 18.1458 15.2825 18.1179C15.5225 18.087 15.7713 18.1168 16.0185 18.1465C16.0879 18.1548 16.1572 18.1631 16.226 18.1701C16.4688 18.1951 16.6885 18.4293 16.7631 18.6799C16.7825 18.7455 16.8694 18.8022 16.9372 18.8395C16.9769 18.8623 17.022 18.8779 17.0667 18.8934C17.131 18.9157 17.1945 18.9378 17.2401 18.9805C17.6264 19.3411 17.8017 19.8199 17.9442 20.3107C17.9957 20.475 18.0172 20.6472 18.0076 20.819C17.9755 21.1896 17.9279 21.5587 17.8804 21.928C17.8666 22.0352 17.8528 22.1424 17.8394 22.2496C17.831 22.316 17.8237 22.3828 17.8164 22.4497C17.7949 22.6459 17.7734 22.8431 17.7252 23.0328C17.6912 23.1667 17.6371 23.2954 17.583 23.4243C17.5394 23.5283 17.4956 23.6324 17.4623 23.7395C17.4271 23.8535 17.4045 23.9715 17.3819 24.0896C17.3625 24.1913 17.343 24.2931 17.3154 24.3925C17.2449 24.6472 17.3366 24.9172 17.5746 25.0067C17.8044 25.0941 18.0493 25.1351 18.2951 25.1274C18.5409 25.1197 18.7827 25.0635 19.0066 24.962C19.1984 24.8705 19.4111 24.8319 19.6227 24.8501C19.6621 24.8536 19.7009 24.8664 19.7396 24.8793C19.7845 24.8942 19.8292 24.909 19.8745 24.909C20.3223 24.9167 20.7644 25.011 21.1764 25.1869C21.2775 25.2283 21.4621 25.1902 21.5493 25.1164C21.6366 25.0425 21.7037 24.8617 21.6739 24.7584C21.6262 24.5935 21.6753 24.4699 21.7266 24.3408C21.7358 24.3174 21.7452 24.2938 21.7541 24.2698C21.7631 24.2719 21.7711 24.273 21.778 24.2739C21.7898 24.2755 21.7981 24.2766 21.8014 24.2814C22.0554 24.6379 22.2456 25.0067 22.13 25.4718C22.1119 25.559 22.0761 25.6415 22.0247 25.7142C21.9734 25.787 21.9077 25.8484 21.8316 25.8947C21.6623 25.9969 21.4844 26.1035 21.298 26.1531C21.1392 26.1948 20.9698 26.1978 20.8016 26.2007C20.7592 26.2014 20.7169 26.2021 20.6748 26.2035C20.6511 26.1996 20.6287 26.1898 20.6098 26.175C20.5908 26.1602 20.5758 26.1409 20.5663 26.1188C20.5577 26.0875 20.5976 26.0275 20.6323 26.0032C20.706 25.9466 20.788 25.9017 20.8754 25.8701C20.8778 25.8693 20.8802 25.8686 20.8826 25.8678C20.99 25.8342 21.0842 25.8046 21.0455 25.6612C21.014 25.5442 20.9299 25.5536 20.8475 25.5628C20.8315 25.5646 20.8156 25.5664 20.8001 25.5673C20.7369 25.5707 20.6737 25.5739 20.6105 25.5772C20.3898 25.5885 20.169 25.5999 19.9487 25.6176C19.8326 25.6334 19.7175 25.6559 19.6041 25.6851C19.614 25.7203 19.6265 25.7547 19.6414 25.788C19.7872 26.0237 19.7771 26.0342 19.5634 26.2031C19.5295 26.2315 19.5017 26.2666 19.4818 26.3062C19.462 26.3458 19.4504 26.389 19.4478 26.4332C19.4523 26.5324 19.4749 26.6306 19.4976 26.729C19.5111 26.7875 19.5246 26.8461 19.5344 26.905C19.5661 27.0982 19.4717 27.1735 19.2893 27.1459C19.1908 27.1319 19.0905 27.154 19.007 27.2082C18.9127 27.2779 18.8963 27.3965 18.9805 27.5065C18.9958 27.5332 19.0051 27.5628 19.0078 27.5934C19.0237 27.6699 19.0387 27.7468 19.0536 27.8237C19.0865 27.9929 19.1194 28.1623 19.1633 28.3285C19.1976 28.4586 19.2849 28.5724 19.4445 28.5452C19.5974 28.5194 19.7473 28.4616 19.7025 28.2584C19.6606 28.0561 19.6055 27.8568 19.5377 27.6617C19.4758 27.4901 19.5832 27.4092 19.6917 27.3503C19.8233 27.2789 19.8893 27.393 19.9464 27.4916L19.9479 27.4942C19.958 27.5116 19.9682 27.529 19.9784 27.5464C20.0207 27.6188 20.0632 27.6914 20.102 27.7657C20.1196 27.7989 20.1395 27.8319 20.1593 27.865C20.2136 27.9553 20.2681 28.0461 20.2799 28.1416C20.3048 28.349 20.4063 28.3732 20.5808 28.3654C21.0906 28.3426 21.6004 28.3307 22.1105 28.3188L22.1587 28.3177C22.2228 28.316 22.2874 28.3199 22.3519 28.3238C22.4489 28.3297 22.5457 28.3355 22.6402 28.3225C22.8843 28.2844 23.1263 28.2337 23.3652 28.1707C23.4342 28.1538 23.5013 28.129 23.5684 28.1041C23.6257 28.0829 23.6829 28.0617 23.7414 28.0454C23.9302 27.9932 24.12 27.9447 24.312 27.9074C24.3522 27.8997 24.3974 27.9149 24.4418 27.9299C24.4577 27.9352 24.4734 27.9405 24.4888 27.9447C24.6279 27.9824 24.767 28.0204 24.905 28.0622C24.9259 28.0685 24.948 28.0739 24.9702 28.0794C25.0362 28.0956 25.1038 28.1122 25.1459 28.1532C25.3495 28.3501 25.536 28.5601 25.7225 28.7723C25.7363 28.7949 25.7447 28.8204 25.7469 28.8468C25.7491 28.8733 25.7451 28.8998 25.7352 28.9244C25.7165 28.9617 25.6457 29.0072 25.6084 28.999C25.4755 28.9694 25.347 28.9301 25.2182 28.8908C25.1785 28.8787 25.1388 28.8665 25.0989 28.8547C25.0481 28.833 24.9952 28.8163 24.9412 28.8047C24.6072 28.7656 24.2696 28.8359 23.979 29.005C23.8653 29.0763 23.7441 29.135 23.6176 29.1799C23.3055 29.2787 22.9989 29.3839 22.7304 29.58C22.667 29.6267 22.5861 29.6789 22.5141 29.677C22.3299 29.6729 22.1785 29.7158 22.1039 29.8941C22.0403 30.0514 21.9891 30.2135 21.951 30.3789C21.9413 30.4203 21.9864 30.4833 22.02 30.5247C22.1583 30.694 22.3556 30.7197 22.5443 30.6761C22.6823 30.6444 22.739 30.6858 22.7569 30.7977C22.7787 30.9506 22.7922 31.1046 22.7975 31.259C22.8054 31.4003 22.7364 31.4727 22.5909 31.4917C22.4817 31.5062 22.3754 31.5375 22.2758 31.5846C22.153 31.639 22.0387 31.7108 21.9364 31.7979C21.9055 31.826 21.8591 31.8442 21.8124 31.8626C21.6959 31.9084 21.5773 31.955 21.6907 32.157C21.6595 32.1718 21.6236 32.1816 21.588 32.1913C21.4844 32.2194 21.3835 32.2469 21.4087 32.3953C21.4404 32.5799 21.3327 32.637 21.1991 32.659C21.0037 32.6911 20.9922 32.7925 21.041 32.9521C21.0915 33.1164 21.1388 33.2817 21.1862 33.447C21.2284 33.5944 21.2707 33.7418 21.3151 33.8886C21.3215 33.91 21.3456 33.9263 21.3697 33.9425C21.3808 33.95 21.3919 33.9574 21.4013 33.9654C21.4103 33.9521 21.4218 33.939 21.4333 33.9258C21.4579 33.8976 21.4826 33.8694 21.4826 33.8401C21.4874 33.708 21.4882 33.5757 21.4891 33.4435C21.4898 33.3212 21.4906 33.1989 21.4945 33.0767C21.4958 33.0403 21.5152 33.0047 21.5347 32.969C21.5438 32.9524 21.5529 32.9357 21.5601 32.9189C21.6083 32.9495 21.6546 32.9829 21.6989 33.0189C21.7412 33.0576 21.7821 33.098 21.8229 33.1383C21.8958 33.2103 21.9685 33.2822 22.0491 33.3441C22.1319 33.406 22.1691 33.4549 22.1319 33.5582C22.0416 33.8069 22.0662 33.8494 22.3336 33.8897C22.4319 33.9003 22.5311 33.8985 22.629 33.8845C22.7251 33.8756 22.821 33.864 22.9169 33.8524C23.0583 33.8354 23.1996 33.8183 23.3417 33.8099C23.3865 33.807 23.4321 33.8304 23.4786 33.8542C23.5049 33.8677 23.5314 33.8813 23.5583 33.8904C23.5821 33.8987 23.6081 33.9103 23.6343 33.922C23.7013 33.952 23.7701 33.9827 23.8101 33.9613C23.9533 33.8852 24.1036 33.7842 24.1916 33.6533C24.2747 33.5294 24.3441 33.5183 24.4761 33.5261C24.632 33.535 24.7931 33.503 24.9475 33.4686C25.0198 33.4528 25.0887 33.4211 25.1575 33.3895C25.1906 33.3742 25.2236 33.359 25.2571 33.3456C25.2924 33.3312 25.3336 33.32 25.3747 33.3087C25.464 33.2843 25.553 33.2599 25.5819 33.2042C25.6606 33.0521 25.7684 32.9693 25.9075 32.8947C25.9808 32.8487 26.0409 32.7844 26.082 32.7082C26.1282 32.628 26.1282 32.5434 26.0164 32.496C25.7926 32.4028 25.7807 32.3562 25.9522 32.179C25.9968 32.1333 26.0589 32.1035 26.1204 32.0739C26.1412 32.0638 26.162 32.0538 26.1819 32.0433C26.2482 32.0082 26.3152 31.9741 26.3822 31.94C26.4668 31.8969 26.5514 31.8539 26.6347 31.8087C26.6791 31.7846 26.722 31.7575 26.7649 31.7303C26.8371 31.6847 26.909 31.6392 26.9871 31.6088C27.0133 31.5986 27.0397 31.5887 27.0661 31.5789C27.2604 31.5064 27.4516 31.435 27.5465 31.2176C27.5555 31.1965 27.5765 31.1815 27.5976 31.1665C27.6081 31.1589 27.6187 31.1514 27.6278 31.143C27.6652 31.109 27.7031 31.0754 27.7411 31.0419C27.8348 30.9589 27.9287 30.8759 28.0142 30.7854C28.1014 30.6929 28.1581 30.6966 28.2055 30.8085C28.2325 30.8723 28.2547 30.9381 28.2802 31.0137C28.2924 31.05 28.3054 31.0884 28.32 31.13C28.4192 30.8223 28.5594 30.5777 28.8205 30.418C28.835 30.4067 28.847 30.3923 28.8555 30.3759C28.864 30.3595 28.8688 30.3414 28.8697 30.3229C28.8721 30.1747 28.971 30.0943 29.0687 30.0149C29.0757 30.0092 29.0828 30.0035 29.0897 29.9977C29.1125 29.9791 29.137 29.9605 29.1619 29.9416C29.2509 29.8744 29.344 29.8039 29.3732 29.7151C29.4461 29.4985 29.492 29.2734 29.5381 29.0478C29.553 28.9745 29.568 28.9013 29.5839 28.8282C29.59 28.801 29.5899 28.773 29.5899 28.7451C29.5898 28.7167 29.5898 28.6886 29.5962 28.6615C29.6172 28.5728 29.6402 28.4843 29.6631 28.3958C29.745 28.0797 29.8272 27.7626 29.8252 27.4308C29.8233 27.0724 29.8155 26.7137 29.7972 26.356C29.7946 26.3083 29.7222 26.2531 29.67 26.2214C29.551 26.1487 29.4653 26.0726 29.4891 25.9107C29.4979 25.8512 29.4825 25.7882 29.4692 25.734C29.4638 25.7121 29.4588 25.6917 29.4559 25.6735H29.1542C29.1617 25.6447 29.1688 25.6157 29.1759 25.5867C29.191 25.5255 29.206 25.4642 29.224 25.4039C29.2417 25.3451 29.2665 25.2854 29.2913 25.2258C29.3444 25.0981 29.3974 24.9707 29.3799 24.8535C29.3554 24.6911 29.2762 24.5371 29.1968 24.3829C29.1611 24.3136 29.1253 24.2442 29.0946 24.174C29.0845 24.1509 29.073 24.1277 29.0614 24.1045C29.03 24.0413 28.9983 23.9776 28.9943 23.9129C28.9722 23.556 28.9614 23.1984 28.957 22.8407C28.9554 22.7303 28.9612 22.6197 28.9671 22.509C28.9723 22.4107 28.9775 22.3124 28.9775 22.2142C28.9774 22.1889 28.9778 22.163 28.9782 22.1369C28.9802 22.0128 28.9822 21.8835 28.9338 21.7808C28.8645 21.6331 28.8857 21.55 29.0017 21.4612C29.1177 21.3725 29.1669 21.2628 29.1848 21.1136C29.2008 20.9809 29.2354 20.8506 29.27 20.7202C29.2855 20.6616 29.3011 20.603 29.315 20.5442C29.3225 20.5217 29.3244 20.4978 29.3206 20.4744C29.3006 20.4072 29.2792 20.3401 29.2578 20.2732C29.24 20.2176 29.2222 20.162 29.2053 20.1063C29.1091 19.7927 29.2042 19.4593 29.4347 19.3799C29.5555 19.3381 29.5827 19.2777 29.5883 19.1658C29.5944 19.0469 29.6045 18.9282 29.6146 18.8096C29.6249 18.6882 29.6353 18.5669 29.6413 18.4453C29.643 18.4088 29.6275 18.3717 29.6119 18.3344C29.6034 18.3141 29.5949 18.2937 29.5891 18.2734C29.5817 18.2469 29.5731 18.2205 29.5645 18.1941C29.5429 18.1277 29.5213 18.0613 29.5179 17.994C29.5162 17.9625 29.5146 17.931 29.5131 17.8995C29.5069 17.7705 29.5006 17.6423 29.4839 17.5168C28.9537 17.1476 28.0372 16.6978 26.4951 16.3811H25.9675C26.0998 16.5236 26.1937 16.6973 26.2405 16.886C26.2579 16.9497 26.3271 16.9993 26.4047 17.0548C26.4422 17.0815 26.4815 17.1097 26.518 17.1415C26.5006 17.1495 26.4823 17.1602 26.4644 17.1706C26.4256 17.1932 26.389 17.2146 26.3688 17.2042C26.2453 17.1408 26.1163 17.0729 26.0193 16.9763C25.8831 16.8425 25.7575 16.6968 25.6318 16.551C25.5823 16.4937 25.5328 16.4363 25.4827 16.3796H22.4246C22.3463 16.4078 22.2679 16.4358 22.1895 16.4638C21.9703 16.5422 21.751 16.6205 21.5337 16.7029C21.4889 16.72 21.4475 16.7463 21.4061 16.7726C21.3596 16.8022 21.3133 16.8316 21.2625 16.8476L21.2458 16.8529C21.0472 16.9158 20.8454 16.9796 20.6401 17.005C20.5084 17.0214 20.3747 17.0201 20.2408 17.0189C20.1457 17.018 20.0506 17.0171 19.9561 17.0225C19.9283 17.0241 19.9028 17.0493 19.8766 17.0754C19.8579 17.094 19.8388 17.113 19.8182 17.124L19.8168 17.1247C19.7672 17.1512 19.6962 17.1891 19.6567 17.1717C19.6037 17.1486 19.5321 17.071 19.5381 17.0263C19.553 16.9161 20.0559 16.566 20.5532 16.2199C20.6599 16.1456 20.7663 16.0715 20.8677 16C16.9762 16.1264 15.1337 16.9507 14.3018 17.5457ZM24.0707 18.2174C24.1393 18.2256 24.2083 18.2294 24.2774 18.2286L24.0238 17.9549L24.0484 17.9112L24.9147 18.2096C24.9203 18.2118 24.9296 18.2156 24.9296 18.2204C24.9472 18.2743 24.9658 18.328 24.9844 18.3818C25.0315 18.5179 25.0786 18.654 25.1101 18.7936C25.1242 18.8548 25.1115 18.9223 25.0974 18.9965C25.0907 19.0321 25.0836 19.0693 25.0792 19.108C24.7708 19.2859 24.5104 19.2486 24.2688 18.9652C24.1767 18.8566 24.0845 18.8533 23.9812 18.9428C23.9784 18.9452 23.9751 18.9477 23.9718 18.9503C23.9608 18.9587 23.9485 18.9681 23.944 18.9801C23.845 19.2457 23.6122 19.3144 23.3849 19.3816C23.3508 19.3916 23.3169 19.4017 23.2835 19.4123C23.1771 19.4426 23.0632 19.4311 22.965 19.3802C22.7905 19.2756 22.6293 19.1504 22.4847 19.0073C22.3694 18.8947 22.2669 18.873 22.1412 18.9607C21.9726 19.0789 21.8119 19.2046 21.7861 19.4347C21.7683 19.5665 21.8029 19.7 21.8823 19.8067C21.9618 19.9133 22.0799 19.9846 22.2113 20.0053C22.2395 20.0143 22.2664 20.0268 22.2915 20.0426C22.1248 20.2544 21.9726 20.2731 21.7321 20.1082C21.7197 20.0997 21.7077 20.0912 21.6959 20.0829C21.5881 20.0067 21.5015 19.9455 21.3334 20.0508C21.1029 20.1951 20.9291 20.056 20.9232 19.7849C20.9215 19.712 20.9173 19.6391 20.9131 19.5662C20.9077 19.473 20.9023 19.3797 20.9023 19.2866C20.9022 19.2203 20.9189 19.155 20.9508 19.0968C20.98 19.0459 21.0158 18.9989 21.0517 18.9518C21.0838 18.9095 21.116 18.8671 21.1436 18.822C21.4274 18.3569 21.8503 18.0824 22.3597 17.9247C22.3714 17.9211 22.3858 17.9262 22.4063 17.9334C22.4179 17.9375 22.4315 17.9424 22.4477 17.9467L22.2374 18.1331C22.2391 18.1436 22.2407 18.1539 22.2422 18.1642C22.2438 18.1746 22.2454 18.185 22.2471 18.1954C22.2971 18.1975 22.3473 18.2014 22.3975 18.2053C22.5083 18.2138 22.6191 18.2224 22.7282 18.2118L22.7426 18.2104C23.1853 18.168 23.628 18.1256 24.0707 18.2174Z" fill="#4C5865"/>
</g>
<defs>
<clipPath id="clip0_52_214">
<rect width="48" height="48" fill="white"/>
</clipPath>
</defs>
</svg>
