<svg width="88" height="88" viewBox="0 0 88 88" fill="none" xmlns="http://www.w3.org/2000/svg">
<path fill-rule="evenodd" clip-rule="evenodd" d="M85 44C85 66.6437 66.6437 85 44 85C21.3563 85 3 66.6437 3 44C3 21.3563 21.3563 3 44 3C66.6437 3 85 21.3563 85 44ZM88 44C88 68.3005 68.3005 88 44 88C19.6995 88 0 68.3005 0 44C0 19.6995 19.6995 0 44 0C68.3005 0 88 19.6995 88 44ZM66.0631 35.4426C65.9839 35.7757 65.887 36.1043 65.7729 36.4271L65.5944 36.4086C65.5446 36.3446 65.501 36.2759 65.4642 36.2035C65.2744 35.7256 64.7657 35.3738 64.2868 35.4415C64.1504 35.46 63.935 35.6015 63.9227 35.7041C63.9148 35.7672 63.9062 35.831 63.8975 35.8951V35.8952C63.8461 36.274 63.793 36.666 63.8868 37.0168C64.0745 37.7183 64.3822 38.3921 64.6898 39.0577C64.7621 39.2144 64.8868 39.3497 65.0318 39.507L65.0319 39.507C65.107 39.5886 65.1877 39.6761 65.2693 39.7756L65.9636 38.2936C66.026 38.5099 66.0868 38.7127 66.1449 38.9065L66.1467 38.9124L66.1471 38.9139L66.1472 38.9142C66.2772 39.3478 66.3938 39.7367 66.4856 40.1315C66.659 40.8873 66.4856 41.0955 65.7677 41.1571C65.7677 41.4684 65.7662 41.7794 65.7646 42.0902C65.7608 42.8491 65.757 43.6066 65.7759 44.364C65.7935 44.8743 65.857 45.382 65.9657 45.8809C65.9903 46.0019 66.2446 46.166 66.3831 46.1578C66.926 46.1397 67.466 46.0689 67.9953 45.9465L68.0346 45.9363C68.8573 45.7222 69.7065 45.5013 69.9326 44.4686C69.9578 44.3935 69.9992 44.3247 70.0538 44.2671C70.1083 44.2096 70.1748 44.1646 70.2485 44.1353C70.8751 43.9374 71.0761 43.402 70.589 42.9805C70.0905 42.5502 69.9206 41.9848 69.7506 41.419L69.7506 41.4189L69.7505 41.4188L69.7505 41.4188L69.7505 41.4187L69.7505 41.4186L69.7505 41.4186L69.7504 41.4185L69.7504 41.4184L69.7504 41.4184L69.7504 41.4183L69.7503 41.4182L69.7503 41.4182C69.6899 41.217 69.6294 41.0158 69.5542 40.8207C69.5151 40.7057 69.5232 40.5799 69.5767 40.4709C69.693 40.2714 69.8268 40.0814 69.9605 39.8915L69.9606 39.8913L69.9609 39.8909C70.0134 39.8164 70.0658 39.7419 70.1172 39.6669C70.1785 39.7461 70.2522 39.8235 70.3259 39.9008C70.4888 40.0718 70.6516 40.2427 70.6813 40.434C70.7509 40.8909 71.0385 41.1466 71.3251 41.4016C71.3847 41.4545 71.4442 41.5075 71.5017 41.5622C71.8361 41.8801 72.1007 41.7939 72.2463 41.3191C72.3919 40.8443 72.5232 40.3663 72.6257 39.8833C72.6807 39.6206 72.7084 39.3525 72.736 39.0844C72.748 38.9673 72.7601 38.8502 72.7745 38.7336L72.5888 38.6803C72.4793 38.8175 72.3809 38.9633 72.2945 39.1162C72.2469 39.2125 72.2116 39.3159 72.1764 39.419L72.1764 39.4192C72.1168 39.5936 72.0576 39.7672 71.9396 39.9038C71.752 40.1212 71.4104 40.4012 71.1982 40.3571C70.8689 40.2884 70.8577 39.9089 70.9992 39.5869C71.0299 39.5154 71.0513 39.4396 71.0727 39.3638C71.0976 39.2754 71.1225 39.1871 71.1623 39.1059C71.8873 37.6352 71.9684 36.142 71.3407 34.619C71.2418 34.3775 71.1487 34.1338 71.0555 33.8899L71.0552 33.8893L71.0551 33.8891L71.0547 33.8881L71.0544 33.8871C71.0059 33.7601 70.9573 33.6331 70.9079 33.5063L71.031 33.4611C71.8151 34.9651 72.4012 36.5643 72.7745 38.2188C72.8411 37.0373 72.8473 35.9133 72.556 34.7975C72.3662 34.109 72.2203 33.4092 72.1191 32.7022C71.9055 31.0461 71.2675 29.4733 70.2669 28.1364C70.0126 27.7897 69.8464 27.9251 69.6803 28.1466C69.4465 28.4543 69.1819 28.5876 68.7983 28.4543C68.7458 28.4359 68.6832 28.4465 68.5939 28.4616C68.5437 28.4701 68.4849 28.4801 68.4147 28.4871C68.5576 29.08 68.69 29.6314 68.822 30.181L68.834 30.231L68.8379 30.2473L68.8383 30.249L68.6999 30.2849C68.6762 30.2147 68.6524 30.1445 68.6286 30.0743C68.5708 29.9038 68.513 29.7334 68.4578 29.5619C68.2824 29.0204 67.6507 28.7661 67.343 29.1763C66.8712 29.8039 66.4097 30.4685 66.3585 31.3074C66.3536 31.3903 66.3515 31.4748 66.3493 31.5598C66.3422 31.8369 66.3351 32.1185 66.2354 32.3587C65.9195 33.1217 65.9749 33.2212 66.8179 33.3596C67.1064 33.4074 67.3818 33.5986 67.6347 33.7742L67.6743 33.8016C67.7676 33.8662 67.8435 34.1319 67.7932 34.1924C67.6775 34.3041 67.5223 34.3653 67.3615 34.3626C66.3995 34.3431 66.2446 34.4744 66.0631 35.4426ZM70.3921 32.4879L70.23 32.6048C69.9428 32.2076 69.6571 31.811 69.3726 31.4151L69.5347 31.2982C69.8205 31.6941 70.1063 32.0906 70.3921 32.4879ZM62.6709 32.1905C62.6973 31.9624 62.7178 31.7507 62.7371 31.5511C62.7786 31.1225 62.8148 30.7493 62.8924 30.3875C62.9629 30.0915 63.1105 29.8194 63.3201 29.5989C63.9354 28.9517 64.4482 28.2656 64.7559 27.398C65.0451 26.5652 65.6892 25.996 66.646 26.0165C66.9127 26.0165 67.2614 26.1724 67.4101 26.3755C67.5055 26.5027 67.3732 26.8985 67.2306 27.0934C66.8623 27.5855 66.6561 28.1368 66.4473 28.695C66.3898 28.8488 66.332 29.0031 66.2707 29.1568C65.9404 29.9826 65.8312 30.8423 65.7222 31.701L65.7222 31.7012C65.6417 32.3355 65.5612 32.9692 65.3918 33.5884C65.3036 33.9104 65.0441 34.415 64.8318 34.4314L64.7916 34.4345C64.1706 34.4835 63.4241 34.5424 63.1099 33.7976C62.9394 33.3978 62.8458 32.9686 62.7649 32.5978L62.7649 32.5977L62.7648 32.5974L62.7647 32.5969C62.7328 32.4505 62.7028 32.3132 62.6709 32.1905ZM62.0547 61.2225C62.0658 61.1209 62.0781 61.0094 62.0983 60.8856C62.0112 60.9295 61.9473 60.9595 61.8992 60.9821C61.8182 61.0201 61.7821 61.037 61.7557 61.064L61.7549 61.0649C61.1388 61.6943 60.5227 62.3237 59.9148 62.9613C59.6197 63.2703 59.3294 63.5842 59.0392 63.8981L59.0388 63.8985C58.4871 64.4952 57.9355 65.0917 57.3509 65.6535C56.8979 66.0891 56.4288 66.5085 55.9598 66.9278L55.9597 66.9279C54.819 67.9478 53.6787 68.9672 52.7717 70.2193C52.4491 70.6878 52.1595 71.1782 51.9051 71.6869C51.8733 71.7464 52.1123 72.0244 52.1205 72.0192C52.2796 71.9274 52.4604 71.8725 52.6416 71.8176C53.0349 71.6983 53.4302 71.5784 53.6106 71.0777C53.6999 70.8306 54.0342 70.6419 54.2957 70.4952C54.4373 70.4162 54.5951 70.3635 54.7526 70.3109C54.9464 70.2462 55.1395 70.1818 55.3008 70.0686C55.896 69.6465 56.4691 69.194 57.0176 68.7128L57.0316 68.7008L57.0316 68.7007C57.3996 68.3855 57.78 68.0596 58.0534 67.6677C58.2695 67.3557 58.45 67.0206 58.6304 66.6855L58.6305 66.6854C58.7798 66.4082 58.929 66.131 59.0985 65.8668C59.4338 65.3599 59.7974 64.8723 60.1876 64.4064C60.2991 64.2699 60.4292 64.1468 60.5589 64.0241C60.7382 63.8545 60.9166 63.6857 61.044 63.4834C61.3852 62.9157 61.6884 62.3261 61.9516 61.7184C62.0153 61.5801 62.0329 61.4203 62.0547 61.2225V61.2225ZM20.6157 31.747H20.6158C20.7022 31.7474 20.7596 31.7477 20.7967 31.7757C20.8794 31.8377 20.9623 31.8995 21.0452 31.9614L21.0458 31.9619L21.0465 31.9624C21.4704 32.2784 21.895 32.595 22.291 32.9438C22.4787 33.11 22.3935 33.2997 22.132 33.4074C21.7321 33.5735 21.3349 33.7469 20.9378 33.9202C20.5406 34.0935 20.1434 34.2668 19.7435 34.433C19.2307 34.6473 18.5076 34.195 18.3015 33.55C18.1148 32.9674 18.4041 32.5172 19.0297 32.3316C19.244 32.2678 19.4485 32.1708 19.6529 32.0739L19.6531 32.0738C19.7576 32.0243 19.8622 31.9747 19.9681 31.9296C20.1048 31.871 20.2428 31.817 20.3447 31.7771C20.3803 31.7632 20.4115 31.7509 20.4368 31.7408C20.507 31.7465 20.5662 31.7467 20.6157 31.747ZM57.5878 72.9402C58.1403 72.173 58.6924 71.4059 59.2441 70.6388L59.1518 70.526C59.0439 70.5537 58.9404 70.5961 58.8441 70.6521C58.1632 71.1854 57.4883 71.7156 56.8299 72.2694C56.6397 72.4288 56.4613 72.6097 56.2831 72.7902C55.9578 73.1199 55.6336 73.4485 55.2413 73.6427C54.655 73.9344 54.6137 74.3536 54.5671 74.8264L54.5602 74.8958L54.5572 74.9247C54.5424 75.0673 54.5372 75.2107 54.5321 75.3542C54.5302 75.406 54.5284 75.4579 54.5261 75.5097C54.5242 75.5516 54.522 75.5935 54.5193 75.6354C54.4947 76.0138 54.7449 76.0825 54.9654 75.9113C55.4532 75.5434 55.9041 75.1292 56.312 74.6744C56.6443 74.2897 56.9361 73.8703 57.2281 73.4508L57.2285 73.4503L57.2285 73.4502L57.2286 73.4501C57.3474 73.2794 57.4662 73.1086 57.5878 72.9402ZM59.4454 68.0667C59.3285 68.2335 59.2238 68.3891 59.1246 68.5365C58.9626 68.7773 58.8152 68.9962 58.6537 69.2061C58.3009 69.6635 57.9358 70.1107 57.5481 70.5394C57.4977 70.5961 57.4009 70.6117 57.3041 70.6273C57.2591 70.6346 57.2141 70.6418 57.1738 70.6532C57.1569 70.5905 57.1296 70.5223 57.1023 70.4541C57.043 70.3059 56.9838 70.1579 57.0322 70.0666C57.2435 69.6666 57.4927 69.2574 57.824 68.959C58.0992 68.7111 58.4274 68.5219 58.7552 68.3329C58.8817 68.26 59.0082 68.1871 59.1316 68.1108C59.1596 68.0953 59.1962 68.0923 59.2595 68.0871H59.2596C59.3053 68.0833 59.365 68.0783 59.4454 68.0667ZM20.8365 36.8708L20.6426 37.4748C20.6847 38.1999 20.8139 38.3189 21.5308 38.243C21.6982 38.2271 21.8627 38.1888 22.02 38.1292C22.1338 38.083 22.2876 37.9917 22.3051 37.8974C22.3225 37.803 22.2097 37.6574 22.1174 37.5795C21.9124 37.4037 21.6916 37.2472 21.458 37.1118C21.257 37.0163 21.0493 36.9358 20.8365 36.8708ZM25.2119 36.1376L25.2124 36.1361L25.2128 36.1347C25.2959 35.849 25.3779 35.567 25.459 35.2862C26.0179 35.3703 26.5061 35.799 26.4784 36.1477C26.4384 36.68 26.0066 36.9005 25.0026 36.8584C25.0732 36.6146 25.1429 36.3748 25.2119 36.1376ZM24.3822 37.2437C24.2901 37.2321 24.1899 37.2194 24.0795 37.201C24.0917 37.2831 24.0951 37.372 24.0984 37.4589C24.1054 37.6423 24.1121 37.8169 24.2005 37.9005C24.3533 38.0358 24.6671 38.0235 24.9061 38.003C25.0035 37.9938 25.1707 37.7876 25.1563 37.6953C25.1374 37.6196 25.1021 37.5489 25.0528 37.4883C25.0035 37.4277 24.9415 37.3786 24.8712 37.3446C24.73 37.2878 24.5734 37.268 24.3822 37.2437ZM23.0727 35.8001L23.0727 35.8C23.1452 35.4875 23.2123 35.1982 23.6076 35.1653C23.6384 35.1653 23.7461 35.3919 23.7102 35.473C23.6928 35.5181 23.6785 35.5691 23.6639 35.621C23.5935 35.8722 23.5164 36.1477 23.0456 35.914C23.0551 35.8759 23.0639 35.8379 23.0727 35.8001ZM27.3891 50.8586L26.7112 50.5088C26.6722 51.0011 26.8701 51.159 27.2106 51.0996C27.2628 51.0911 27.2999 51.0202 27.337 50.9494C27.3539 50.9171 27.3708 50.8849 27.3891 50.8586ZM41.5853 29.9194C41.5227 29.8374 41.4631 29.7657 41.414 29.7065C41.3303 29.6056 41.2766 29.5409 41.2889 29.5235C41.4669 29.2813 41.6626 29.0527 41.8745 28.8394C41.9692 28.8949 42.0553 28.964 42.1298 29.0446C41.9895 29.2982 41.8296 29.544 41.6012 29.8949L41.5853 29.9194ZM17.1312 26.7021C17.1877 26.5472 17.2542 26.3965 17.3303 26.2509C19.6178 24.6146 24.6846 22.3475 35.3865 22C35.1079 22.1967 34.8152 22.4004 34.5217 22.6047C33.1543 23.5565 31.7714 24.5191 31.7302 24.8222C31.7138 24.9453 31.9107 25.1586 32.0564 25.2222C32.1651 25.27 32.3604 25.1657 32.4967 25.0929L32.5004 25.0909C32.5572 25.0606 32.6097 25.0084 32.6611 24.9574L32.6612 24.9573L32.6612 24.9573C32.7333 24.8857 32.8033 24.8162 32.8799 24.812C33.1397 24.7971 33.4013 24.7995 33.6627 24.8019C34.0308 24.8053 34.3986 24.8087 34.7608 24.7638C35.3254 24.6939 35.8803 24.5183 36.4265 24.3455L36.4725 24.331C36.612 24.287 36.7395 24.2059 36.8673 24.1246C36.981 24.0524 37.095 23.9799 37.2181 23.933C37.8155 23.7065 38.4185 23.491 39.0213 23.2756L39.0217 23.2755C39.2373 23.1984 39.4529 23.1214 39.6682 23.0439H48.0779C48.2158 23.1997 48.3518 23.3575 48.4879 23.5153C48.8336 23.9162 49.1791 24.3168 49.5537 24.6848C49.8203 24.9504 50.1752 25.1371 50.5146 25.3114C50.5701 25.3402 50.6709 25.2814 50.7777 25.2191C50.8268 25.1905 50.8771 25.1611 50.9249 25.1391C50.8247 25.0517 50.7165 24.9742 50.6135 24.9006C50.4001 24.7479 50.2096 24.6116 50.1618 24.4366C50.0332 23.9177 49.7748 23.4399 49.4111 23.048H50.8622C55.1028 23.9188 57.6231 25.1557 59.0812 26.1711C59.1273 26.5162 59.1444 26.8689 59.1615 27.2235C59.1657 27.3101 59.17 27.3968 59.1746 27.4836C59.1841 27.6685 59.2435 27.8512 59.3028 28.0338C59.3264 28.1064 59.35 28.179 59.3705 28.2517C59.3864 28.3078 59.4098 28.3638 59.4332 28.4197L59.4332 28.4197C59.4761 28.5223 59.5187 28.6243 59.514 28.7245C59.4975 29.059 59.4691 29.3926 59.4407 29.7262L59.4407 29.7263L59.4407 29.7266C59.4129 30.0528 59.3851 30.379 59.3684 30.7059C59.353 31.0136 59.2782 31.1798 58.9459 31.2946C58.3121 31.5131 58.0506 32.4299 58.3152 33.2924C58.3617 33.4455 58.4105 33.5983 58.4593 33.7511C58.5182 33.9354 58.5771 34.1197 58.632 34.3047C58.6426 34.3689 58.6373 34.4347 58.6167 34.4965C58.5785 34.6583 58.5357 34.8195 58.493 34.9806L58.4929 34.9806L58.4929 34.9807C58.3977 35.3392 58.3026 35.6974 58.2587 36.0625C58.2095 36.4727 58.0741 36.7743 57.7552 37.0183C57.4362 37.2624 57.3778 37.4911 57.5685 37.8973C57.7016 38.1795 57.696 38.5353 57.6906 38.8766L57.6906 38.877C57.6895 38.9486 57.6883 39.0195 57.6885 39.089C57.6885 39.3591 57.6742 39.6294 57.6599 39.8997C57.6439 40.204 57.6278 40.5083 57.6321 40.812C57.6444 41.7955 57.6742 42.779 57.7347 43.7605C57.7459 43.9383 57.833 44.1135 57.9194 44.2874C57.9511 44.3512 57.9828 44.4148 58.0106 44.4784C58.0952 44.6715 58.1934 44.8623 58.2916 45.053C58.5099 45.4771 58.7279 45.9006 58.7951 46.347C58.8434 46.6693 58.6976 47.0197 58.5516 47.3709C58.4834 47.5349 58.4151 47.6991 58.3664 47.8607C58.317 48.0264 58.2756 48.1949 58.2342 48.3634L58.2342 48.3634C58.2248 48.4019 58.2153 48.4403 58.2058 48.4788C58.1956 48.52 58.1852 48.5611 58.1746 48.6022H59.0043C59.0123 48.6521 59.0261 48.7083 59.0408 48.7686C59.0773 48.9175 59.1197 49.0909 59.0956 49.2545C59.03 49.6996 59.2659 49.9088 59.593 50.1088C59.7366 50.196 59.9356 50.3477 59.9427 50.479C59.993 51.4625 60.0145 52.4492 60.0197 53.4347C60.0253 54.3472 59.7993 55.219 59.574 56.0883C59.5109 56.3318 59.4479 56.5752 59.39 56.8191C59.3724 56.8935 59.3725 56.971 59.3727 57.0489C59.3728 57.1256 59.3729 57.2027 59.3561 57.2776C59.3124 57.4785 59.2713 57.68 59.2302 57.8813L59.2302 57.8814C59.1035 58.502 58.9772 59.1209 58.7767 59.7164C58.6965 59.9608 58.4405 60.1545 58.1958 60.3395C58.1274 60.3913 58.0598 60.4424 57.9972 60.4938L57.9395 60.5408C57.6707 60.7594 57.3988 60.9804 57.3921 61.3881C57.3897 61.4388 57.3764 61.4885 57.353 61.5336C57.3297 61.5788 57.2968 61.6183 57.2568 61.6496C56.5389 62.0885 56.1532 62.7613 55.8804 63.6074C55.8402 63.4931 55.8046 63.3873 55.771 63.2877C55.7008 63.0798 55.6398 62.8988 55.5656 62.7234C55.4353 62.4157 55.2794 62.4054 55.0395 62.6598C54.8043 62.9088 54.5463 63.137 54.2884 63.3651L54.2883 63.3652C54.184 63.4575 54.0797 63.5497 53.977 63.6433C53.952 63.6662 53.9229 63.687 53.8938 63.7077L53.8938 63.7078C53.8358 63.7491 53.778 63.7904 53.7534 63.8484C53.4924 64.4463 52.9666 64.6425 52.4322 64.8419C52.3598 64.869 52.2872 64.8961 52.215 64.9242C52.0003 65.0078 51.8025 65.1329 51.6042 65.2583L51.6041 65.2584C51.4861 65.333 51.3679 65.4078 51.2459 65.4739C51.0169 65.5981 50.7841 65.7166 50.5514 65.835C50.3672 65.9288 50.183 66.0225 50.0008 66.119C49.9458 66.1481 49.8888 66.1755 49.8315 66.2031C49.6624 66.2845 49.4917 66.3667 49.3691 66.4923C48.8973 66.9795 48.9301 67.1077 49.5455 67.3641C49.8531 67.4943 49.8531 67.7271 49.726 67.9476C49.6131 68.1572 49.4477 68.3339 49.246 68.4604C48.8635 68.6655 48.5671 68.8932 48.3507 69.3116C48.2713 69.4648 48.0265 69.5318 47.7809 69.599C47.6678 69.6299 47.5547 69.6609 47.4574 69.7003C47.3655 69.7373 47.2746 69.7791 47.1836 69.821C46.9944 69.908 46.8049 69.9951 46.6062 70.0388C46.1816 70.1331 45.7385 70.2213 45.3098 70.1967C44.9468 70.1752 44.756 70.2059 44.5273 70.5464C44.2853 70.9064 43.872 71.1843 43.4782 71.3936C43.3683 71.4525 43.179 71.3679 42.9948 71.2856C42.9227 71.2534 42.8514 71.2215 42.7859 71.1987C42.712 71.1736 42.6389 71.1361 42.5668 71.0992L42.5667 71.0991C42.4387 71.0335 42.3133 70.9693 42.19 70.9772C41.7995 71.0004 41.4108 71.0473 41.022 71.0942C40.7583 71.126 40.4946 71.1578 40.2302 71.1823C39.9611 71.2209 39.6882 71.2257 39.4179 71.1966C38.6826 71.0859 38.6149 70.969 38.8631 70.2849C38.9656 70.0008 38.8631 69.8665 38.6354 69.6962C38.4139 69.526 38.2138 69.3283 38.0134 69.1303L38.0132 69.1301C37.901 69.0193 37.7887 68.9083 37.6724 68.8019C37.5508 68.7028 37.4234 68.6111 37.2909 68.5271C37.271 68.5731 37.2459 68.619 37.2209 68.6648C37.1674 68.7629 37.1139 68.8609 37.1104 68.9609C37.0995 69.297 37.0975 69.6333 37.0954 69.9697V69.97C37.0931 70.3335 37.0909 70.697 37.0776 71.0602C37.0776 71.1407 37.0098 71.2183 36.942 71.2959C36.9104 71.3321 36.8788 71.3683 36.854 71.4048C36.8282 71.3829 36.7977 71.3624 36.7673 71.3419C36.7009 71.2972 36.6347 71.2526 36.6171 71.1936C36.4948 70.79 36.3787 70.3846 36.2626 69.9793C36.1323 69.5246 36.0021 69.0701 35.8633 68.6183C35.7289 68.1794 35.7607 67.9005 36.2981 67.8122C36.6653 67.7517 36.9617 67.5948 36.8745 67.0872C36.805 66.6788 37.0827 66.6033 37.3675 66.5259L37.3676 66.5259C37.4654 66.4993 37.5641 66.4725 37.6498 66.4318C37.338 65.8762 37.6641 65.748 37.9845 65.6221C38.113 65.5716 38.2406 65.5214 38.3257 65.4442C38.6069 65.2047 38.9212 65.0071 39.259 64.8576C39.5329 64.7282 39.8252 64.642 40.1256 64.6022C40.5255 64.5499 40.7153 64.3509 40.6937 63.9622C40.6791 63.5377 40.6418 63.1142 40.5819 62.6936C40.5327 62.3859 40.3768 62.2721 39.9974 62.3593C39.4784 62.4793 38.9359 62.4085 38.5554 61.9429C38.4631 61.8291 38.339 61.6557 38.3657 61.5419C38.4706 61.0871 38.6112 60.6413 38.7862 60.2086C38.9913 59.7184 39.4077 59.6005 39.9143 59.6118C40.1122 59.6169 40.3348 59.4733 40.5091 59.3451C41.2475 58.8057 42.0906 58.5164 42.949 58.2447C43.2968 58.1212 43.6301 57.9599 43.9428 57.7637C44.7419 57.2987 45.6704 57.1054 46.5887 57.2129C46.7374 57.2448 46.8827 57.2909 47.0226 57.3504C47.0828 57.3683 47.1429 57.3864 47.2029 57.4046C47.2522 57.4196 47.3014 57.4347 47.3507 57.4497C47.7048 57.5578 48.0582 57.6657 48.4235 57.7473C48.526 57.7698 48.7209 57.6447 48.7722 57.5422C48.7994 57.4745 48.8104 57.4015 48.8043 57.3288C48.7983 57.2561 48.7753 57.1859 48.7373 57.1237C48.2245 56.5402 47.7117 55.9628 47.1518 55.4213C47.0359 55.3085 46.8501 55.2629 46.6685 55.2183C46.6073 55.2033 46.5466 55.1883 46.4893 55.171C46.1098 55.0562 45.7272 54.9516 45.3447 54.848C45.3024 54.8364 45.2591 54.8218 45.2155 54.8072L45.2155 54.8072C45.0933 54.766 44.969 54.7242 44.8586 54.7454C44.3304 54.848 43.8084 54.9813 43.2895 55.1249C43.1285 55.1697 42.971 55.228 42.8136 55.2863C42.629 55.3547 42.4445 55.423 42.2547 55.4695C41.5977 55.6427 40.9322 55.782 40.2609 55.8869C40.0011 55.9226 39.7349 55.9065 39.4682 55.8905H39.4682H39.4681C39.2907 55.8798 39.1131 55.869 38.9369 55.8735L38.8043 55.8766H38.8041C37.4014 55.9094 35.9995 55.9422 34.5977 56.0048C34.1178 56.0264 33.8388 55.9597 33.7701 55.3895C33.7378 55.1267 33.5879 54.8771 33.4387 54.6287L33.4386 54.6286C33.384 54.5377 33.3295 54.4469 33.2809 54.3557C33.1742 54.1514 33.0575 53.9518 32.941 53.7525C32.9131 53.7047 32.8851 53.6569 32.8573 53.6091L32.8531 53.6018C32.6962 53.3307 32.5146 53.017 32.1527 53.2132C31.8543 53.3752 31.5589 53.5978 31.7292 54.0696C31.9156 54.6061 32.0671 55.1543 32.1825 55.7105C32.3056 56.2694 31.8933 56.4284 31.4728 56.4991C31.0339 56.574 30.7939 56.2612 30.6995 55.9033C30.5789 55.4463 30.4884 54.9806 30.3979 54.5152L30.3979 54.5151L30.3979 54.515C30.3568 54.3036 30.3157 54.0923 30.2719 53.8819C30.2646 53.7977 30.2391 53.7162 30.197 53.6429C29.9652 53.3404 30.0103 53.0142 30.2698 52.8225C30.4994 52.6735 30.7752 52.6127 31.0462 52.6512C31.5477 52.7271 31.8071 52.5199 31.72 51.9887C31.6932 51.8266 31.6561 51.6656 31.619 51.5048L31.619 51.5048C31.5565 51.2341 31.4943 50.9641 31.482 50.6913C31.489 50.5697 31.5208 50.4509 31.5755 50.342C31.6302 50.2332 31.7066 50.1367 31.8 50.0585C32.3876 49.594 32.4153 49.5652 32.0143 48.9171C31.9733 48.8253 31.939 48.7307 31.9117 48.634C32.2237 48.5537 32.5401 48.4918 32.8594 48.4484C33.4652 48.3998 34.0722 48.3685 34.6791 48.3372L34.6794 48.3372C34.8532 48.3283 35.027 48.3193 35.2008 48.3099C35.2433 48.3076 35.2872 48.3027 35.3312 48.2977C35.5577 48.2723 35.7889 48.2464 35.8756 48.5684C35.982 48.9627 35.7231 49.0439 35.4275 49.1366L35.4079 49.1427C35.1676 49.2297 34.942 49.3532 34.7393 49.5088C34.6439 49.5755 34.5341 49.7406 34.5577 49.8268C34.5841 49.8874 34.6252 49.9405 34.6773 49.9811C34.7295 50.0218 34.7909 50.0488 34.8562 50.0596C34.9718 50.0558 35.0883 50.0538 35.2049 50.0518H35.205C35.6674 50.0438 36.1334 50.0358 36.5699 49.9211C37.0827 49.7847 37.5719 49.4914 38.0375 49.2104C38.2466 49.0831 38.4274 48.9142 38.5685 48.7141C38.7097 48.5141 38.8082 48.2871 38.858 48.0474C39.1759 46.7685 38.6528 45.7542 37.9544 44.7738C37.9453 44.7607 37.9226 44.7576 37.8899 44.7532C37.871 44.7506 37.8489 44.7476 37.8242 44.742C37.7998 44.808 37.7741 44.8728 37.7485 44.9371C37.6076 45.2922 37.4726 45.6322 37.6037 46.0855C37.6857 46.3695 37.5011 46.867 37.2611 47.07C37.0212 47.2731 36.5135 47.3777 36.2356 47.2638C35.1027 46.7804 33.8868 46.5209 32.6553 46.4998C32.5308 46.4998 32.4077 46.459 32.2843 46.418C32.1779 46.3827 32.0712 46.3472 31.963 46.3378C31.381 46.2877 30.7961 46.3939 30.2688 46.6454C29.6529 46.9246 28.9878 47.0792 28.312 47.1003C27.6361 47.1214 26.9627 47.0087 26.3306 46.7685C25.6763 46.5224 25.424 45.7798 25.6178 45.0794C25.6937 44.806 25.7473 44.5261 25.8008 44.2463C25.8629 43.9216 25.9249 43.5971 26.0219 43.2836C26.1135 42.9891 26.2337 42.7028 26.3538 42.4168L26.3538 42.4168L26.3538 42.4168C26.5026 42.0624 26.6513 41.7085 26.7449 41.3401C26.8772 40.8185 26.9365 40.2763 26.9956 39.7366L26.9956 39.7362C27.0157 39.5524 27.0358 39.3688 27.0587 39.1864C27.0956 38.8918 27.1335 38.5972 27.1715 38.3027L27.1716 38.3019C27.3023 37.2865 27.433 36.2713 27.5213 35.2523C27.5477 34.7797 27.4886 34.3061 27.3469 33.8545C26.9551 32.5048 26.4731 31.188 25.4106 30.1962C25.2854 30.0789 25.1107 30.0183 24.9339 29.9569C24.8109 29.9143 24.6868 29.8713 24.5779 29.8086C24.3912 29.706 24.1522 29.5501 24.0989 29.3696C23.8938 28.6804 23.2897 28.0364 22.6221 27.9677C22.4327 27.9486 22.2423 27.9257 22.0515 27.9028H22.0515C21.3716 27.8213 20.6873 27.7392 20.0274 27.8241C19.4264 27.901 18.7475 28.1143 18.3167 28.7071C18.1578 28.9266 17.8439 29.2117 17.6378 29.184C17.1845 29.1235 16.8789 28.5379 16.9373 28.1153C16.9601 27.9543 16.9733 27.7904 16.9865 27.6268V27.6267V27.6267C17.0119 27.311 17.0373 26.9959 17.1312 26.7021ZM44.7632 28.1287C44.5734 28.1307 44.3836 28.1205 44.195 28.0979C42.9776 27.8453 41.7601 27.962 40.5427 28.0787L40.503 28.0825C40.2031 28.1115 39.8983 28.0879 39.5937 28.0645C39.4556 28.0538 39.3176 28.0432 39.18 28.0374C39.1754 28.0087 39.171 27.9802 39.1667 27.9518L39.1664 27.9503C39.1621 27.9223 39.1579 27.8944 39.1533 27.8661L39.7317 27.3533C39.6872 27.3415 39.6498 27.3282 39.6178 27.3169C39.5614 27.297 39.5218 27.283 39.4897 27.2928C38.0888 27.7266 36.9258 28.4815 36.1453 29.7604C36.0696 29.8846 35.981 30.001 35.8926 30.1173C35.794 30.2469 35.6956 30.3763 35.6151 30.5162C35.5275 30.6762 35.4816 30.8558 35.4818 31.0382C35.4818 31.2943 35.4966 31.5506 35.5115 31.8069V31.807C35.5231 32.0075 35.5347 32.2081 35.5392 32.4084C35.5556 33.154 36.0335 33.5365 36.6673 33.1396C37.1297 32.8502 37.3677 33.0185 37.6642 33.2281C37.6807 33.2397 37.6973 33.2515 37.7142 33.2633C37.7305 33.2747 37.7469 33.2861 37.7637 33.2976C38.4252 33.7509 38.8436 33.6996 39.302 33.1171C39.2331 33.0737 39.1591 33.0393 39.0815 33.0145C38.7202 32.9577 38.3955 32.7617 38.1769 32.4684C37.9584 32.1751 37.8634 31.8079 37.9124 31.4454C37.9831 30.8126 38.4252 30.467 38.8887 30.1419C39.2343 29.9009 39.5164 29.9603 39.8333 30.2701C40.2309 30.6636 40.6744 31.0079 41.1542 31.2956C41.4243 31.4355 41.7375 31.4671 42.0301 31.3838C42.1218 31.3545 42.2153 31.327 42.309 31.2993C42.934 31.1147 43.5744 30.9256 43.8463 30.1952C43.8589 30.1622 43.8926 30.1364 43.9229 30.1132C43.9321 30.1061 43.941 30.0993 43.9489 30.0926C44.233 29.8465 44.4863 29.8557 44.7396 30.1542C45.4042 30.9336 46.12 31.0362 46.9682 30.547C46.9805 30.4404 46.9999 30.3382 47.0184 30.2403C47.057 30.0364 47.0921 29.8507 47.0533 29.6824C46.9666 29.2986 46.8371 28.9243 46.7076 28.55L46.7076 28.5498C46.6565 28.4021 46.6054 28.2544 46.5569 28.1061C46.5569 28.0928 46.5313 28.0825 46.5159 28.0764L44.1335 27.2559L44.0658 27.3759L44.7632 28.1287Z" fill="#FF7F22"/>
</svg>
